<svg width="16" height="16" viewBox="0 0 16 16" fill="none" xmlns="http://www.w3.org/2000/svg">
<path d="M8.21755 0C3.83235 0 1.50024 2.81013 1.50024 5.87426C1.50024 7.29533 2.29428 9.06741 3.56534 9.62943C3.75835 9.71644 3.86335 9.67943 3.90635 9.50043C3.94435 9.36442 4.11136 8.70939 4.19237 8.40038C4.21737 8.30137 4.20437 8.21537 4.12436 8.12236C3.70234 7.63434 3.36733 6.7453 3.36733 5.91127C3.36733 3.77417 5.06641 1.69908 7.95754 1.69908C10.4576 1.69908 12.2067 3.32315 12.2067 5.64625C12.2067 8.27137 10.8177 10.0875 9.01258 10.0875C8.01354 10.0875 7.2695 9.30342 7.50551 8.33337C7.79053 7.17832 8.34955 5.93627 8.34955 5.10323C8.34955 4.3562 7.92753 3.73817 7.0655 3.73817C6.04845 3.73817 5.22341 4.74521 5.22341 6.09727C5.22341 6.95631 5.52743 7.53634 5.52743 7.53634C5.52743 7.53634 4.52138 11.6005 4.33437 12.3596C4.01836 13.6446 4.37737 15.7257 4.40838 15.9047C4.42738 16.0037 4.53838 16.0347 4.60038 15.9537C4.69939 15.8237 5.91544 14.0886 6.25646 12.8346C6.38046 12.3776 6.88949 10.5245 6.88949 10.5245C7.2245 11.1295 8.19155 11.6365 9.22159 11.6365C12.2857 11.6365 14.4998 8.9434 14.4998 5.60125C14.4888 2.39711 11.7467 0 8.21755 0Z" fill="#222222"/>
</svg>
