<svg width="16" height="16" viewBox="0 0 16 16" fill="none" xmlns="http://www.w3.org/2000/svg">
<path d="M8.00002 5.55469C6.65069 5.55469 5.55469 6.65069 5.55469 8.00002C5.55469 9.34935 6.65069 10.448 8.00002 10.448C9.34935 10.448 10.448 9.34935 10.448 8.00002C10.448 6.65069 9.34935 5.55469 8.00002 5.55469Z" fill="#222222"/>
<path d="M11.6906 1.3335H4.30925C2.66925 1.3335 1.33325 2.6695 1.33325 4.3095V11.6908C1.33325 13.3335 2.66925 14.6668 4.30925 14.6668H11.6906C13.3333 14.6668 14.6666 13.3335 14.6666 11.6908V4.3095C14.6666 2.6695 13.3333 1.3335 11.6906 1.3335ZM7.99992 12.3202C5.61859 12.3202 3.67992 10.3815 3.67992 8.00016C3.67992 5.61883 5.61859 3.68283 7.99992 3.68283C10.3813 3.68283 12.3199 5.61883 12.3199 8.00016C12.3199 10.3815 10.3813 12.3202 7.99992 12.3202ZM12.4106 4.46683C11.9066 4.46683 11.4959 4.05883 11.4959 3.55483C11.4959 3.05083 11.9066 2.64016 12.4106 2.64016C12.9146 2.64016 13.3253 3.05083 13.3253 3.55483C13.3253 4.05883 12.9146 4.46683 12.4106 4.46683Z" fill="#222222"/>
</svg>
