<svg width="246" height="47" viewBox="0 0 246 47" fill="none" xmlns="http://www.w3.org/2000/svg">
<path d="M1.54368 5.116H5.427V11.8455H11.3846V5.116H15.268V22H11.3846V14.9328H5.427V22H1.54368V5.116ZM27.11 22.2412C25.502 22.2412 24.1192 21.8955 22.9614 21.204C21.8036 20.5126 20.9192 19.5156 20.3082 18.2132C19.6972 16.9107 19.3916 15.359 19.3916 13.558C19.3916 11.757 19.6972 10.2053 20.3082 8.90284C20.9192 7.60036 21.8036 6.6034 22.9614 5.91196C24.1192 5.22052 25.502 4.8748 27.11 4.8748C28.718 4.8748 30.1009 5.22052 31.2587 5.91196C32.4164 6.6034 33.3008 7.60036 33.9119 8.90284C34.5229 10.2053 34.8284 11.757 34.8284 13.558C34.8284 15.359 34.5229 16.9107 33.9119 18.2132C33.3008 19.5156 32.4164 20.5126 31.2587 21.204C30.1009 21.8955 28.718 22.2412 27.11 22.2412ZM27.11 19.178C28.3 19.178 29.2326 18.6795 29.908 17.6825C30.5994 16.6856 30.9451 15.3107 30.9451 13.558C30.9451 11.8053 30.5994 10.4304 29.908 9.43348C29.2326 8.43652 28.3 7.93804 27.11 7.93804C25.9201 7.93804 24.9794 8.43652 24.288 9.43348C23.6126 10.4304 23.275 11.8053 23.275 13.558C23.275 15.3107 23.6126 16.6856 24.288 17.6825C24.9794 18.6795 25.9201 19.178 27.11 19.178ZM55.6897 5.116V22H51.8546V13.0756L48.6949 22H45.9452L42.7855 13.0756V22H38.9504V5.116H42.9544L47.3201 17.8272L51.6858 5.116H55.6897ZM60.6335 5.116H72.187V8.20336H64.5168V11.6043H71.3669V14.6916H64.5168V18.9126H72.187V22H60.6335V5.116ZM76.4043 5.116H80.2876V18.9126H88.1749V22H76.4043V5.116ZM93.9251 15.2464L88.4017 5.116H92.5985L95.8547 11.7731L99.1109 5.116H103.308L97.8085 15.2464V22H93.9251V15.2464ZM114.46 5.116H126.013V8.20336H118.343V11.6043H125.193V14.6916H118.343V18.9126H126.013V22H114.46V5.116ZM130.231 5.116H134.114V18.9126H142.001V22H130.231V5.116ZM145.837 5.116H157.39V8.20336H149.72V11.6043H156.57V14.6916H149.72V18.9126H157.39V22H145.837V5.116ZM174.849 12.6897V22H171.858L171.545 21.1076C170.484 21.8633 169.253 22.2412 167.854 22.2412C165.603 22.2412 163.859 21.4854 162.62 19.9739C161.398 18.4624 160.787 16.3238 160.787 13.558C160.787 11.8053 161.109 10.2777 161.752 8.9752C162.411 7.65664 163.336 6.6436 164.526 5.93608C165.732 5.22856 167.139 4.8748 168.747 4.8748C170.162 4.8748 171.384 5.14816 172.413 5.69488C173.458 6.22552 174.214 6.98128 174.68 7.96216L172.461 9.86764C172.075 9.2566 171.569 8.79028 170.942 8.46868C170.315 8.131 169.599 7.96216 168.795 7.96216C167.444 7.96216 166.415 8.43652 165.708 9.38524C165.016 10.334 164.671 11.7249 164.671 13.558C164.671 17.4654 165.917 19.4192 168.409 19.4192C169.358 19.4192 170.226 19.2021 171.014 18.7679V15.4152H167.493V12.6897H174.849ZM188.498 19.4915H182.951L182.203 22H178.151L184.036 5.116H187.413L193.298 22H189.246L188.498 19.4915ZM187.558 16.4042L185.724 10.3259L183.891 16.4042H187.558ZM210.929 5.116V22H207.407L200.895 11.6525V22H197.036V5.116H200.726L207.069 15.2705V5.116H210.929ZM223.032 22.2412C221.424 22.2412 220.017 21.8874 218.811 21.1799C217.605 20.4724 216.672 19.4674 216.013 18.1649C215.37 16.8464 215.048 15.3107 215.048 13.558C215.048 11.8053 215.37 10.2777 216.013 8.9752C216.672 7.65664 217.605 6.6436 218.811 5.93608C220.017 5.22856 221.424 4.8748 223.032 4.8748C224.447 4.8748 225.669 5.14816 226.698 5.69488C227.727 6.22552 228.483 6.98128 228.966 7.96216L226.747 9.86764C225.91 8.59732 224.688 7.96216 223.08 7.96216C221.714 7.96216 220.676 8.43652 219.969 9.38524C219.277 10.3179 218.932 11.7088 218.932 13.558C218.932 15.3911 219.277 16.782 219.969 17.7308C220.66 18.6795 221.673 19.1538 223.008 19.1538C224.696 19.1538 225.943 18.5187 226.747 17.2484L228.966 19.1538C228.483 20.1347 227.727 20.8985 226.698 21.4452C225.669 21.9759 224.447 22.2412 223.032 22.2412ZM232.935 5.116H244.488V8.20336H236.818V11.6043H243.668V14.6916H236.818V18.9126H244.488V22H232.935V5.116Z" fill="black"/>
<path d="M55.5029 39V30.0365H56.1611L60.204 38.229L63.9963 30.0365H64.5918V39H63.9963V31.2463L60.436 39H59.8969L56.0984 31.1836V39H55.5029ZM76.3661 39H75.664L79.7196 30.0365H80.5031L84.5774 39H83.7939L82.465 35.9913H78.4471L78.6414 35.4271H82.2206L80.0706 30.5505L76.3661 39ZM102.545 38.649C101.78 38.9248 100.98 39.0627 100.144 39.0627C96.9388 39.0627 95.3363 37.5061 95.3363 34.3929C95.3363 31.4469 96.9033 29.9738 100.037 29.9738C100.894 29.9738 101.73 30.0992 102.545 30.3499V30.9141C101.73 30.6633 100.936 30.538 100.163 30.538C97.3839 30.538 95.9944 31.8229 95.9944 34.3929C95.9944 37.13 97.3442 38.4985 100.044 38.4985C100.595 38.4985 101.21 38.4066 101.887 38.2227V34.9257H102.545V38.649ZM114.231 39H113.529L117.585 30.0365H118.368L122.443 39H121.659L120.33 35.9913H116.312L116.507 35.4271H120.086L117.936 30.5505L114.231 39ZM139.626 30.0365V30.6007L134.192 38.4359H139.501V39H133.358V38.4985L138.962 30.6007H133.483V30.0365H139.626ZM152.297 30.0365V39H151.639V30.0365H152.297ZM164.472 39V30.0365H165.319L171.305 37.8843V30.0365H171.9V39H171.367L165.068 30.7762V39H164.472ZM189.648 30.0365V30.6007H184.42V34.1735H189.435V34.7376H184.42V38.4359H189.736V39H183.762V30.0365H189.648Z" fill="black"/>
</svg>
